<?xml version="1.0" encoding="utf-8"?>
<svg xmlns="http://www.w3.org/2000/svg" viewBox="0 0 500 500" xmlns:bx="https://boxy-svg.com" width="500px" height="500px"><defs><radialGradient gradientUnits="userSpaceOnUse" cx="4.868" cy="294.926" r="2.799" id="gradient-0" gradientTransform="matrix(1.132621, -0.005661, 0.004998, 0.999988, -1.994236, -286.938768)"><stop offset="0" style="stop-color: rgb(234, 213, 110);"/><stop offset="1" style="stop-color: rgb(46, 23, 6);"/></radialGradient><radialGradient gradientUnits="userSpaceOnUse" cx="4.911" cy="291.056" r="3.447" id="gradient-1" gradientTransform="matrix(0.784804, 0.858779, -1.483175, 1.355414, 432.870904, -394.634278)"><stop offset="0" style="stop-color: rgb(218, 180, 85);"/><stop offset="1" style="stop-color: rgb(10, 6, 2);"/></radialGradient><linearGradient gradientUnits="userSpaceOnUse" x1="4.868" y1="294.178" x2="4.868" y2="295.673" id="gradient-2" gradientTransform="matrix(1.07361, 0, 0, 1, -0.233, -286.970007)"><stop offset="0" style="stop-color: rgb(230, 199, 141);"/><stop offset="1" style="stop-color: rgb(97, 84, 46);"/></linearGradient><linearGradient gradientUnits="userSpaceOnUse" x1="4.881" y1="288.116" x2="4.881" y2="294.177" id="gradient-3" gradientTransform="matrix(1.07361, 0, 0, 1, -0.233, -286.970007)"><stop offset="0" style="stop-color: rgb(255, 228, 176);"/><stop offset="1" style="stop-color: rgb(135, 116, 72);"/></linearGradient><bx:export><bx:file format="svg" href="#object-0"/><bx:file format="svg" href="#object-1" path="Untitled 2.svg"/><bx:file format="svg" href="#object-2" path="Untitled 3.svg"/><bx:file format="svg" path="Untitled 4.svg"/></bx:export></defs><g style="fill: rgb(255, 255, 255); fill-opacity: 1;" transform="matrix(53.754837, 0, 0, 53.707527, -19.366871, -22.092331)"><g style="fill:#fff;fill-opacity:1;stroke-width:.09651081;stroke-miterlimit:4;stroke-dasharray:none"><g id="object-2"><path d="M 6.791 7.208 C 7.948 7.208 7.998 8.066 7.998 8.703 L 1.988 8.703 C 1.988 8.053 2.038 7.208 3.195 7.208 L 6.791 7.208 Z" style="fill-opacity: 1; stroke-width: 0.386043; stroke-linecap: butt; stroke-linejoin: miter; stroke-miterlimit: 4; stroke-dasharray: none; paint-order: fill; stroke: url(&quot;#gradient-0&quot;); fill: url(&quot;#gradient-2&quot;);" id="object-0"/><path d="M 4.577 1.146 L 4.577 1.63 L 4 1.63 L 4 2.383 L 4.577 2.383 C 4.577 2.965 4.424 2.859 4.005 3.1 C 1.409 2.128 -0.004 5.155 2.996 7.207 L 6.985 7.193 C 10.043 5.155 8.6 2.129 6.005 3.116 C 5.511 2.863 5.42 3.005 5.42 2.383 L 6.008 2.383 L 6.008 1.63 L 5.42 1.63 L 5.42 1.146 L 4.577 1.146 Z M 6.648 4.204 C 7.353 4.205 7.608 5.077 5.8 6.232 L 5.8 4.615 C 6.135 4.3 6.333 4.175 6.648 4.205 L 6.648 4.204 Z M 3.468 4.212 C 3.76 4.222 3.899 4.351 4.192 4.627 L 4.192 6.243 C 2.386 5.089 2.654 4.281 3.345 4.216 C 3.386 4.212 3.427 4.211 3.468 4.212 Z" style="fill-opacity: 1; stroke-width: 0.372292; stroke-linecap: butt; stroke-linejoin: miter; stroke-miterlimit: 4; stroke-dasharray: none; paint-order: fill; stroke: url(&quot;#gradient-1&quot;); fill: url(&quot;#gradient-3&quot;);" id="object-1"/></g></g></g></svg>